<?xml version="1.0" encoding="utf-8"?>
<!-- Svg Vector Icons : http://www.onlinewebfonts.com/icon -->
<!DOCTYPE svg PUBLIC "-//W3C//DTD SVG 1.1//EN" "http://www.w3.org/Graphics/SVG/1.1/DTD/svg11.dtd">
<svg version="1.1" xmlns="http://www.w3.org/2000/svg" xmlns:xlink="http://www.w3.org/1999/xlink" x="0px" y="0px" viewBox="0 0 1000 1000" enable-background="new 0 0 1000 1000" xml:space="preserve">
<g style="stroke:none; fill:#5bc0de;"><path d="M246.6,296.3c43,0,78-35,78-78c0-43-35-78-78-78c-43,0-77.9,35-77.9,78C168.8,261.4,203.7,296.3,246.6,296.3L246.6,296.3z M244,158.2c4.3,0,7.8,3.5,7.8,7.8v46.7l39.9-18.8c3.9-1.9,8.5-0.2,10.3,3.7c1.8,3.9,0.2,8.5-3.7,10.4l-51.1,24.2c-2.3,1.1-5.2,1-7.5-0.6c-1.9-1.3-3.1-3.2-3.5-5.4l-0.1-60.2C236.1,161.6,239.7,158.1,244,158.2L244,158.2z" /><path d="M580.8,163.2h14.5v-14.5h14.5v-14.4h-14.5v-14.5h-14.5v14.5h-14.5v14.4h14.5V163.2z" /><path d="M861.5,10h-723C67.6,10,10,67.7,10,138.5v722.9C10,932.3,67.6,990,138.4,990h723c70.8,0,128.5-57.6,128.5-128.5V138.5C990,67.7,932.3,10,861.5,10L861.5,10z M588.1,114.1c20.7,0,54.5,8.7,73.3,29.3L636,192.1c-11.1-14.3-28.4-23.5-47.9-23.5c-19.3,0-36.4,9-47.5,23.1l-25.9-47.2C536.5,122.7,566.6,114.1,588.1,114.1L588.1,114.1z M634.5,232.3c0,25.7-20.8,46.5-46.5,46.5c-25.7,0-46.5-20.8-46.5-46.5c0-25.7,20.8-46.5,46.5-46.5C613.7,185.7,634.5,206.5,634.5,232.3L634.5,232.3z M487.6,333.6c4.2-14.9,23.1-41.3,55.6-41.5l90.7,0.1c31.8,0.8,50.3,26.7,54.5,41.4l39.8,130.1h-39.5l-30-99.8h-20.8l28.9,99.8H509l29.1-99.8h-20.8l-29.2,99.8H448L487.6,333.6L487.6,333.6z M371.3,499.8l358.1-0.1c21.8,0,39.4,17.1,39.6,38.7l0.1,104.5H371.3V499.8L371.3,499.8z M246.7,114.8c57.1,0,103.6,46.5,103.6,103.6c0,57.1-46.5,103.6-103.6,103.6c-57.1,0-103.5-46.4-103.5-103.6C143.1,161.3,189.5,114.8,246.7,114.8z M300.3,579.6c-27.4,0-49.5-22.2-49.5-49.5c0-27.4,22.1-49.5,49.5-49.5c27.4,0,49.6,22.1,49.6,49.5C349.9,557.4,327.7,579.6,300.3,579.6z M349.9,618.5c0,13.5-10.9,24.4-24.4,24.4H255c-13.5,0-24.4-10.9-24.4-24.4c0-13.4,10.8-24.4,24.4-24.4h70.5C339,594.1,349.9,605.1,349.9,618.5z M857.2,854.7h-64.5v-109H213.1v109h-65.2V443.8c0-17.8,14-32.3,31.8-32.3v0c17.8,0,33.4,14.5,33.4,32.3v223.9h579.6V509c0-17.8,14.5-32.3,32.3-32.3c17.8,0,32.2,14.5,32.2,32.3V854.7L857.2,854.7z" /></g>
</svg>
