<?xml version="1.0" encoding="utf-8"?>
<!-- Svg Vector Icons : http://www.onlinewebfonts.com/icon -->
<!DOCTYPE svg PUBLIC "-//W3C//DTD SVG 1.1//EN" "http://www.w3.org/Graphics/SVG/1.1/DTD/svg11.dtd">
<svg version="1.1" xmlns="http://www.w3.org/2000/svg" xmlns:xlink="http://www.w3.org/1999/xlink" x="0px" y="0px" viewBox="0 0 1000 1000" enable-background="new 0 0 1000 1000" xml:space="preserve">
<g style="stroke: none; fill: orange;"><path d="M500,460.3c108.5,0,185.4-84,185.4-194.3v-29.6H314.6v47.2C314.6,374.6,402.4,460.3,500,460.3z M685.4,54.2c0-20.6-23.6-44.2-44.1-44.2H358.7c-20.6,0-44.1,23.6-44.1,44.2v141.3h370.8V54.2L685.4,54.2z M523.4,169.4h-46.8v-46h-48.4V81.5h48.4V35.4h46.8v46.1h48.4v41.9l-48.4,0V169.4z M347.2,510.3l158.4,203.4l160.6-196.5c-50.9-27.7-107.1-43.1-166.2-43.1C446,474.2,394.5,487,347.2,510.3z M309.6,532.6C174.7,617.8,85.1,789,85.1,990h829.7c0-194.6-86.7-364.1-214.8-451.9L530.5,758.6v144.6h-0.5c0.3,1.4,0.5,2.9,0.5,4.4c0,12.9-10.5,23.4-23.4,23.4c-0.5,0-1.1-0.1-1.6-0.2v0.2H306.2l0,0c-12.1,0-22-9.8-22-22c0-0.5,0.1-0.9,0.1-1.4h-0.1v-80.9c-45.2-8.1-79.5-47.5-79.5-95c0-53.4,43.3-96.6,96.6-96.6c53.4,0,96.6,43.3,96.6,96.6c0,47-33.6,86.2-78.1,94.8v59.5c0.6,0.5,1.3,1,1.9,1.5H483c0.4-0.5,0.7-0.9,1.1-1.4V757.7 M300.3,781.4c-27.3,0-49.4-22.1-49.4-49.3c0-27.3,22.1-49.3,49.4-49.3c27.3,0,49.3,22.1,49.3,49.3C349.7,759.3,327.6,781.4,300.3,781.4z"/></g>
</svg>
