<?xml version="1.0" encoding="utf-8"?>
<!-- Svg Vector Icons : http://www.onlinewebfonts.com/icon -->
<!DOCTYPE svg PUBLIC "-//W3C//DTD SVG 1.1//EN" "http://www.w3.org/Graphics/SVG/1.1/DTD/svg11.dtd">
<svg version="1.1" xmlns="http://www.w3.org/2000/svg" xmlns:xlink="http://www.w3.org/1999/xlink" x="0px" y="0px" viewBox="0 0 1000 1000" enable-background="new 0 0 1000 1000" xml:space="preserve">
<g style="stroke:none; fill:#5cb85c;"><path d="M867.4,10H132.2C69.1,10,10,69.2,10,132.3v735C10,930.4,69.3,990,132.4,990h735c63.2,0,122.6-59.2,122.6-122.3V132.4C990,69.3,930.6,10,867.4,10L867.4,10z M526.9,124.1c32.6,0,60.6,19.4,73.2,47.2h-45.7c-3.1-12.5-14.4-21.8-27.9-21.8c-13.5,0-24.8,9.3-27.9,21.8h-45C466.3,143.4,494.3,124.1,526.9,124.1L526.9,124.1z M447.7,190.2h52.7c4.6,9.9,14.5,16.7,26.2,16.7c11.6,0,21.5-6.9,26.1-16.7H606c0.8,4.6,1.4,9.4,1.4,14.3c0,44.4-36,80.4-80.5,80.4c-44.4,0-80.5-36-80.5-80.4C446.4,199.6,446.9,194.8,447.7,190.2L447.7,190.2z M121.7,317.1c-28.6-52.2-15.4-115.9,28.1-153.1l-14.5-26.5c-1.3-2.4-0.5-5.4,2-6.8l36.2-19.7c2.4-1.3,5.4-0.4,6.7,2l14.5,26.5c54.8-16.4,115.6,6.9,144.1,59.2l-70.1,38.3c11.6,21.2,3.7,47.8-17.5,59.4c-21.3,11.6-47.8,3.7-59.5-17.4L121.7,317.1L121.7,317.1z M337.9,663.2c0,40.1-32.6,72.6-72.8,72.6c-40.2,0-72.8-32.5-72.8-72.6c0-40.1,32.6-72.6,72.8-72.6C305.3,590.6,337.9,623.1,337.9,663.2z M602,857.8H191.4v-73.1c0-13.5,10.9-24.4,24.4-24.4H602V857.8z M602,735.9H411.5c-33.2,0-60.2-27-60.2-60.2c0-33.3,27-60.2,60.2-60.2H602V735.9z M585,550.4c-9.3-14-5.4-33,8.7-42.2l76.4-50.3l-21.5-59.3h-29.8l17.5,48.1l-58,38.2c-13,8.6-21.9,21.7-25,37c-3.1,15.3-0.1,30.9,8.4,43.9c3.5,5.2,7.7,9.6,12.4,13.4h-80.2c4.7-3.8,8.9-8.2,12.4-13.4c8.6-13,11.6-28.6,8.4-43.9c-3.1-15.3-12-28.4-25-37l-58-38.2l17.4-48.1h-29.7l-21.5,59.3l76.4,50.3c14.1,9.3,17.9,28.2,8.7,42.2c-9.3,14-28.2,17.9-42.2,8.6l-96.2-63.4c-16.7-11.3-15.1-28.2-12-35.8l40.9-116.5c7.9-22,23.2-39.1,66.2-39.1h188.9c43,0,58.3,17.1,66.2,39.1l40.9,116.5c3,7.5,4.6,24.4-12,35.8l-96.2,63.4C613.2,568.2,594.3,564.3,585,550.4L585,550.4z M864.8,857.8H629V614h235.8V857.8z" /></g>
</svg>
